name ./resultDataOpenSim/trcMotMarkerGrf/sub06/grf-12-01.mot
datacolumns 19
datarows 25
range 1.46800000 1.56400000
endheader

                time	     ground_force_vx	     ground_force_vy	     ground_force_vz	     ground_force_px	     ground_force_py	     ground_force_pz	   l_ground_force_vx	   l_ground_force_vy	   l_ground_force_vz	   l_ground_force_px	   l_ground_force_py	   l_ground_force_pz	     ground_torque_x	     ground_torque_y	     ground_torque_z	   l_ground_torque_x	   l_ground_torque_y	   l_ground_torque_z	
          1.46800000	         51.74183198	        530.15728181	         -6.95638783	          0.92518581	          0.00000000	          0.04428301	          0.00000000	          0.00000000	          0.00000000	          0.00000000	          0.00000000	          0.00000000	          0.00000000	          2.06345750	          0.00000000	          0.00000000	          0.00000000	          0.00000000	
          1.47200000	         56.84539327	        542.38183590	         -6.37300121	          0.92514881	          0.00000000	          0.04403641	          0.00000000	          0.00000000	          0.00000000	          0.00000000	          0.00000000	          0.00000000	          0.00000000	          2.12915193	          0.00000000	          0.00000000	          0.00000000	          0.00000000	
          1.47600000	         61.50402804	        554.60230869	         -5.89989528	          0.92517989	          0.00000000	          0.04379693	          0.00000000	          0.00000000	          0.00000000	          0.00000000	          0.00000000	          0.00000000	          0.00000000	          2.19627428	          0.00000000	          0.00000000	          0.00000000	          0.00000000	
          1.48000000	         65.58055616	        566.71411979	         -5.73908766	          0.92529958	          0.00000000	          0.04356816	          0.00000000	          0.00000000	          0.00000000	          0.00000000	          0.00000000	          0.00000000	          0.00000000	          2.26740725	          0.00000000	          0.00000000	          0.00000000	          0.00000000	
          1.48400000	         69.16046510	        578.57093293	         -6.02432158	          0.92548076	          0.00000000	          0.04335482	          0.00000000	          0.00000000	          0.00000000	          0.00000000	          0.00000000	          0.00000000	          0.00000000	          2.34188929	          0.00000000	          0.00000000	          0.00000000	          0.00000000	
          1.48800000	         72.51301852	        590.00661080	         -6.79468896	          0.92567773	          0.00000000	          0.04316020	          0.00000000	          0.00000000	          0.00000000	          0.00000000	          0.00000000	          0.00000000	          0.00000000	          2.41647042	          0.00000000	          0.00000000	          0.00000000	          0.00000000	
          1.49200000	         75.99944752	        600.86918991	         -7.98737438	          0.92585460	          0.00000000	          0.04298440	          0.00000000	          0.00000000	          0.00000000	          0.00000000	          0.00000000	          0.00000000	          0.00000000	          2.48655856	          0.00000000	          0.00000000	          0.00000000	          0.00000000	
          1.49600000	         79.96923741	        611.04198526	         -9.45317075	          0.92597734	          0.00000000	          0.04282369	          0.00000000	          0.00000000	          0.00000000	          0.00000000	          0.00000000	          0.00000000	          0.00000000	          2.54744197	          0.00000000	          0.00000000	          0.00000000	          0.00000000	
          1.50000000	         84.66919688	        620.44131965	        -10.98960239	          0.92602982	          0.00000000	          0.04266997	          0.00000000	          0.00000000	          0.00000000	          0.00000000	          0.00000000	          0.00000000	          0.00000000	          2.59519077	          0.00000000	          0.00000000	          0.00000000	          0.00000000	
          1.50400000	         90.17754745	        628.99251929	        -12.38265611	          0.92598782	          0.00000000	          0.04251446	          0.00000000	          0.00000000	          0.00000000	          0.00000000	          0.00000000	          0.00000000	          0.00000000	          2.62731495	          0.00000000	          0.00000000	          0.00000000	          0.00000000	
          1.50800000	         96.38100968	        636.61100461	        -13.44900740	          0.92586324	          0.00000000	          0.04235450	          0.00000000	          0.00000000	          0.00000000	          0.00000000	          0.00000000	          0.00000000	          0.00000000	          2.64336288	          0.00000000	          0.00000000	          0.00000000	          0.00000000	
          1.51200000	        103.00924000	        643.21415856	        -14.06915040	          0.92570756	          0.00000000	          0.04218588	          0.00000000	          0.00000000	          0.00000000	          0.00000000	          0.00000000	          0.00000000	          0.00000000	          2.64542620	          0.00000000	          0.00000000	          0.00000000	          0.00000000	
          1.51600000	        109.71529634	        648.73934802	        -14.20372778	          0.92555462	          0.00000000	          0.04200152	          0.00000000	          0.00000000	          0.00000000	          0.00000000	          0.00000000	          0.00000000	          0.00000000	          2.63824251	          0.00000000	          0.00000000	          0.00000000	          0.00000000	
          1.52000000	        116.16573176	        653.13803496	        -13.89051886	          0.92543431	          0.00000000	          0.04179953	          0.00000000	          0.00000000	          0.00000000	          0.00000000	          0.00000000	          0.00000000	          0.00000000	          2.62856908	          0.00000000	          0.00000000	          0.00000000	          0.00000000	
          1.52400000	        122.11547078	        656.36224461	        -13.22518111	          0.92536741	          0.00000000	          0.04157779	          0.00000000	          0.00000000	          0.00000000	          0.00000000	          0.00000000	          0.00000000	          0.00000000	          2.62374287	          0.00000000	          0.00000000	          0.00000000	          0.00000000	
          1.52800000	        127.46080599	        658.35894464	        -12.33257132	          0.92534883	          0.00000000	          0.04133762	          0.00000000	          0.00000000	          0.00000000	          0.00000000	          0.00000000	          0.00000000	          0.00000000	          2.62966892	          0.00000000	          0.00000000	          0.00000000	          0.00000000	
          1.53200000	        132.27358242	        659.07817440	        -11.33586357	          0.92537122	          0.00000000	          0.04108590	          0.00000000	          0.00000000	          0.00000000	          0.00000000	          0.00000000	          0.00000000	          0.00000000	          2.64877001	          0.00000000	          0.00000000	          0.00000000	          0.00000000	
          1.53600000	        136.80242143	        658.48537724	        -10.33355149	          0.92541709	          0.00000000	          0.04082675	          0.00000000	          0.00000000	          0.00000000	          0.00000000	          0.00000000	          0.00000000	          0.00000000	          2.67870009	          0.00000000	          0.00000000	          0.00000000	          0.00000000	
          1.54000000	        141.38629723	        656.53755811	         -9.39904486	          0.92542703	          0.00000000	          0.04055878	          0.00000000	          0.00000000	          0.00000000	          0.00000000	          0.00000000	          0.00000000	          0.00000000	          2.71282928	          0.00000000	          0.00000000	          0.00000000	          0.00000000	
          1.54400000	        146.28879984	        653.13470188	         -8.59118090	          0.92534032	          0.00000000	          0.04028571	          0.00000000	          0.00000000	          0.00000000	          0.00000000	          0.00000000	          0.00000000	          0.00000000	          2.74306560	          0.00000000	          0.00000000	          0.00000000	          0.00000000	
          1.54800000	        151.57993156	        648.11598529	         -7.93914520	          0.92515067	          0.00000000	          0.04001663	          0.00000000	          0.00000000	          0.00000000	          0.00000000	          0.00000000	          0.00000000	          0.00000000	          2.76402414	          0.00000000	          0.00000000	          0.00000000	          0.00000000	
          1.55200000	        157.15148173	        641.30280681	         -7.41483850	          0.92488701	          0.00000000	          0.03975088	          0.00000000	          0.00000000	          0.00000000	          0.00000000	          0.00000000	          0.00000000	          0.00000000	          2.77604318	          0.00000000	          0.00000000	          0.00000000	          0.00000000	
          1.55600000	        162.80624634	        632.51419201	         -6.93607426	          0.92456184	          0.00000000	          0.03948404	          0.00000000	          0.00000000	          0.00000000	          0.00000000	          0.00000000	          0.00000000	          0.00000000	          2.78491255	          0.00000000	          0.00000000	          0.00000000	          0.00000000	
          1.56000000	        168.32511657	        621.53530450	         -6.38853354	          0.92417495	          0.00000000	          0.03922539	          0.00000000	          0.00000000	          0.00000000	          0.00000000	          0.00000000	          0.00000000	          0.00000000	          2.79833419	          0.00000000	          0.00000000	          0.00000000	          0.00000000	
          1.56400000	        173.49471602	        608.10126064	         -5.64570364	          0.92373954	          0.00000000	          0.03898846	          0.00000000	          0.00000000	          0.00000000	          0.00000000	          0.00000000	          0.00000000	          0.00000000	          2.82123775	          0.00000000	          0.00000000	          0.00000000	          0.00000000	
